<?xml version="1.0" standalone="no"?>
<!DOCTYPE svg PUBLIC "-//W3C//DTD SVG 20010904//EN"
 "http://www.w3.org/TR/2001/REC-SVG-20010904/DTD/svg10.dtd">
<svg version="1.0" xmlns="http://www.w3.org/2000/svg"
 width="600.000000pt" height="600.000000pt" viewBox="0 0 600.000000 600.000000"
 preserveAspectRatio="xMidYMid meet">
<metadata>
Created by potrace 1.11, written by Peter Selinger 2001-2013
</metadata>
<g transform="translate(0.000000,600.000000) scale(0.100000,-0.100000)"
fill="#000000" stroke="none">
<path d="M0 4150 l0 -1850 750 0 750 0 0 -1150 0 -1150 2250 0 2250 0 0 1850
0 1850 -750 0 -750 0 0 1150 0 1150 -2250 0 -2250 0 0 -1850z m4200 550 l0
-1000 -1350 0 -1350 0 0 -550 0 -550 -600 0 -600 0 0 1550 0 1550 1950 0 1950
0 0 -1000z m0 -1700 l0 -400 -1200 0 -1200 0 0 400 0 400 1200 0 1200 0 0
-400z m1500 -1150 l0 -1550 -1950 0 -1950 0 0 1000 0 1000 1350 0 1350 0 0
550 0 550 600 0 600 0 0 -1550z"/>
</g>
</svg>
